:SAMPLES-PER-SECOND 30
:FULLY-SPECIFIED
:DEGREES
541
root  -7.13453 39.6549 -0.0162478 17.2904 -64.4193 -11.0111
RightUpLeg  -10.9366 6.30816 11.7701
RightLeg  7.95459 35.6387 6.25791
RightFoot  -3.17857 -0.0946123 1.11411
RightToes  1.74624e-010 -3.18055e-015 -2.98177e-016
Spine  -9.79399 -8.74229 -10.6045
Spine1  -11.8501 -8.98281 25.8438
HEad  46.6018 12.6746 0.744599
LeftShoulder1  -3.88251e-019 9.70628e-020 -3.87848e-018
LeftArm  -20.7258 56.9515 39.6188
LeftForeArm  148.669 -37.7808 173.013
LeftHand  -3.86432 -8.41668 32.819
RightShoulder  0.716251 -0.165501 9.85924
RightArm  -25.6884 -61.489 -32.1783
RightForeArm  176.91 43.9723 -161.009
RightHand  -4.41423 7.47971 -38.1536
LeftUpLeg  5.37303 24.6513 8.47573
LeftLeg  16.9758 35.5176 14.0913
LeftFoot  6.99785 4.062 -22.5238
LeftToes  7.37594e-011 2.64622e-011 -6.25182e-011
542
root  -7.18296 39.6634 0.010275 16.8335 -63.9539 -10.5238
RightUpLeg  -10.853 6.21863 11.6411
RightLeg  7.90155 35.2505 6.14509
RightFoot  -3.40129 -0.0911976 1.10354
RightToes  1.74624e-010 -3.18055e-015 -2.98177e-016
Spine  -10.4022 -8.21679 -9.1072
Spine1  -11.3668 -8.47692 23.2536
HEad  47.3815 11.6379 0.833154
LeftShoulder1  -3.88251e-019 9.70628e-020 -3.87848e-018
LeftArm  -19.5388 58.5433 40.8046
LeftForeArm  148.267 -37.4284 173.124
LeftHand  -3.87579 -7.99358 33.9143
RightShoulder  0.875181 0.25244 10.8154
RightArm  -24.625 -61.4685 -33.2162
RightForeArm  177.843 43.5982 -161.253
RightHand  -4.39958 7.60621 -37.6969
LeftUpLeg  5.34889 24.1266 8.36108
LeftLeg  16.8721 35.6813 13.993
LeftFoot  7.14757 4.08436 -22.4764
LeftToes  7.37594e-011 2.64622e-011 -6.25182e-011
543
root  -7.23033 39.6722 0.0213594 16.3288 -63.4155 -10.0055
RightUpLeg  -10.7944 6.1212 11.5131
RightLeg  7.92081 34.8205 6.08586
RightFoot  -3.57169 -0.0855137 1.05885
RightToes  1.74624e-010 -3.18055e-015 -2.98177e-016
Spine  -10.6758 -7.77508 -8.2999
Spine1  -11.2362 -8.02201 21.7844
HEad  47.7758 10.9023 0.528383
LeftShoulder1  -3.88251e-019 9.70628e-020 -3.87848e-018
LeftArm  -18.1063 59.5475 42.2968
LeftForeArm  146.549 -37.1882 173.242
LeftHand  -3.84619 -7.70569 34.3863
RightShoulder  0.902252 0.382684 10.813
RightArm  -23.68 -61.5522 -34.3116
RightForeArm  178.144 43.1081 -161.61
RightHand  -4.4928 8.04641 -37.2732
LeftUpLeg  5.2602 23.8987 8.33617
LeftLeg  16.856 35.363 13.9724
LeftFoot  7.33588 4.114 -22.4257
LeftToes  7.37594e-011 2.64622e-011 -6.25182e-011
544
root  -7.27374 39.6763 0.0212684 15.8716 -62.833 -9.57363
RightUpLeg  -10.7246 6.06325 11.4453
RightLeg  7.94979 34.3503 6.02422
RightFoot  -3.64268 -0.0675276 0.864867
RightToes  1.74624e-010 -3.18055e-015 -2.98177e-016
Spine  -10.704 -7.38287 -7.97539
Spine1  -11.2907 -7.61365 21.1485
HEad  47.9239 10.6033 -0.076805
LeftShoulder1  -3.88251e-019 9.70628e-020 -3.87848e-018
LeftArm  -16.9595 60.0112 43.5685
LeftForeArm  145.167 -37.2472 173.267
LeftHand  -3.82313 -7.65231 34.3313
RightShoulder  0.852179 0.322698 10.3482
RightArm  -23.3791 -61.5722 -35.0182
RightForeArm  176.76 42.414 -162.185
RightHand  -4.43485 8.03697 -36.8493
LeftUpLeg  5.16058 23.9204 8.43089
LeftLeg  16.8639 34.7602 13.9606
LeftFoot  7.46912 4.134 -22.3853
LeftToes  7.37594e-011 2.64622e-011 -6.25182e-011
545
root  -7.30845 39.6775 0.0287144 15.356 -62.1484 -9.10165
RightUpLeg  -10.619 5.9768 11.3618
RightLeg  7.91597 33.832 5.9199
RightFoot  -3.65023 -0.0377229 0.508186
RightToes  1.74624e-010 -3.18055e-015 -2.98177e-016
Spine  -10.7727 -7.07535 -7.47307
Spine1  -11.1163 -7.30682 20.1006
HEad  47.9586 10.5226 -0.240641
LeftShoulder1  -3.88251e-019 9.70628e-020 -3.87848e-018
LeftArm  -16.5869 60.0068 44.0276
LeftForeArm  144.912 -37.459 173.215
LeftHand  -3.98323 -8.00926 34.7464
RightShoulder  0.863646 0.338498 10.4488
RightArm  -23.6534 -61.319 -35.1551
RightForeArm  175.087 41.9113 -162.622
RightHand  -4.28749 7.66669 -36.6448
LeftUpLeg  5.05669 23.7617 8.45681
LeftLeg  16.8132 34.3724 13.9258
LeftFoot  7.52209 4.13967 -22.3573
LeftToes  7.37594e-011 2.64622e-011 -6.25182e-011
546
root  -7.33391 39.6799 0.0452541 14.8137 -61.3592 -8.54711
RightUpLeg  -10.5386 5.81342 11.2084
RightLeg  7.80757 33.2819 5.81845
RightFoot  -3.64859 -0.005066 0.118332
RightToes  1.74624e-010 -3.18055e-015 -2.98177e-016
Spine  -11.0213 -6.89241 -6.71775
Spine1  -10.6721 -7.13268 18.5182
HEad  47.9369 10.6075 0.402772
LeftShoulder1  -3.88251e-019 9.70628e-020 -3.87848e-018
LeftArm  -16.8674 59.8597 43.5548
LeftForeArm  145.559 -37.533 173.176
LeftHand  -4.37026 -8.8072 35.8379
RightShoulder  0.945292 0.491269 11.0627
RightArm  -23.9549 -61.0354 -34.8985
RightForeArm  174.9 41.9143 -162.629
RightHand  -4.34764 7.82917 -36.7007
LeftUpLeg  4.87181 23.1894 8.29521
LeftLeg  16.7177 34.4188 13.9076
LeftFoot  7.54248 4.13279 -22.2986
LeftToes  7.37594e-011 2.64622e-011 -6.25182e-011
547
root  -7.35515 39.6803 0.0526615 14.5031 -60.6518 -8.1528
RightUpLeg  -10.5285 5.69029 11.0995
RightLeg  7.64526 32.7563 5.73887
RightFoot  -3.64274 0.0191446 -0.170643
RightToes  1.74624e-010 -3.18055e-015 -2.98177e-016
Spine  -11.2752 -6.7722 -6.18856
Spine1  -10.3518 -7.01867 17.4809
HEad  47.8438 11.541 1.3868
LeftShoulder1  -3.88251e-019 9.70628e-020 -3.87848e-018
LeftArm  -17.1264 59.9279 42.8108
LeftForeArm  146.55 -37.436 173.174
LeftHand  -4.63249 -9.36786 36.4606
RightShoulder  0.994218 0.620342 11.3258
RightArm  -24.3173 -60.9718 -34.5132
RightForeArm  174.942 42.1755 -162.439
RightHand  -4.49657 8.36011 -36.5181
LeftUpLeg  4.62558 22.711 8.16959
LeftLeg  16.6265 34.437 13.8702
LeftFoot  7.53741 4.11173 -22.1926
LeftToes  7.37594e-011 2.64622e-011 -6.25182e-011
548
root  -7.37676 39.676 0.0463035 14.5348 -60.2015 -8.1022
RightUpLeg  -10.5459 5.72317 11.1502
RightLeg  7.47346 32.3232 5.64521
RightFoot  -3.62698 0.0329589 -0.33549
RightToes  1.74624e-010 -3.18055e-015 -2.98177e-016
Spine  -11.324 -6.62611 -6.04336
Spine1  -10.3873 -6.88167 17.4236
HEad  47.6694 12.298 1.75288
LeftShoulder1  -3.88251e-019 9.70628e-020 -3.87848e-018
LeftArm  -16.8475 60.2593 42.5725
LeftForeArm  147.236 -37.3443 173.178
LeftHand  -4.4708 -9.10739 35.8709
RightShoulder  0.972162 0.632428 11.0319
RightArm  -24.5483 -61.1387 -34.1177
RightForeArm  174.608 42.4575 -162.248
RightHand  -4.42242 8.49742 -35.6177
LeftUpLeg  4.46904 22.9237 8.34205
LeftLeg  16.5084 33.8905 13.6818
LeftFoot  7.44595 4.07839 -22.1152
LeftToes  7.37594e-011 2.64622e-011 -6.25182e-011
549
root  -7.39811 39.6681 0.0451439 14.6808 -59.9433 -8.21201
RightUpLeg  -10.5423 5.82133 11.2682
RightLeg  7.35932 32.0131 5.54622
RightFoot  -3.63818 0.0389871 -0.408079
RightToes  1.74624e-010 -3.18055e-015 -2.98177e-016
Spine  -11.215 -6.44913 -5.93846
Spine1  -10.5746 -6.71203 17.5703
HEad  47.4643 12.4445 1.47779
LeftShoulder1  -3.88251e-019 9.70628e-020 -3.87848e-018
LeftArm  -16.1741 60.6726 42.8538
LeftForeArm  147.231 -37.3304 173.182
LeftHand  -4.14105 -8.48224 34.8558
RightShoulder  0.956966 0.638433 10.8361
RightArm  -24.4989 -61.2708 -33.8554
RightForeArm  174.313 42.7124 -162.074
RightHand  -4.15048 8.00053 -34.7303
LeftUpLeg  4.48431 23.5107 8.67834
LeftLeg  16.3019 33.0665 13.3173
LeftFoot  7.26965 4.04197 -22.1132
LeftToes  7.37594e-011 2.64622e-011 -6.25182e-011
550
root  -7.41665 39.6645 0.0588273 14.672 -59.7163 -8.17561
RightUpLeg  -10.5309 5.83322 11.2843
RightLeg  7.32167 31.8016 5.48694
RightFoot  -3.70121 0.0384257 -0.409446
RightToes  1.74624e-010 -3.18055e-015 -2.98177e-016
Spine  -11.0924 -6.28483 -5.69284
Spine1  -10.7091 -6.54038 17.2953
HEad  47.2533 12.1052 1.25933
LeftShoulder1  -3.88251e-019 9.70628e-020 -3.87848e-018
LeftArm  -15.6503 61.0641 43.0523
LeftForeArm  146.982 -37.3603 173.182
LeftHand  -4.10148 -8.46267 34.5869
RightShoulder  1.00305 0.740086 11.131
RightArm  -24.2838 -61.2766 -33.7948
RightForeArm  174.769 42.9354 -161.889
RightHand  -4.01523 7.48285 -34.9228
LeftUpLeg  4.58277 23.5761 8.81869
LeftLeg  16.0409 32.8245 12.9346
LeftFoot  7.13315 4.00933 -22.0875
LeftToes  7.37594e-011 2.64622e-011 -6.25182e-011
551
root  -7.4338 39.6688 0.070402 14.5179 -59.4966 -7.95924
RightUpLeg  -10.5459 5.78702 11.1989
RightLeg  7.30316 31.631 5.45163
RightFoot  -3.76848 0.0359231 -0.38892
RightToes  1.74624e-010 -3.18055e-015 -2.98177e-016
Spine  -11.039 -6.15511 -5.42144
Spine1  -10.7667 -6.39142 16.7104
HEad  47.0549 11.7157 1.46102
LeftShoulder1  -3.88251e-019 9.70628e-020 -3.87848e-018
LeftArm  -15.6292 61.4253 42.8642
LeftForeArm  147.238 -37.3994 173.163
LeftHand  -4.36597 -9.14303 35.0111
RightShoulder  1.08025 0.88784 11.6678
RightArm  -24.3762 -61.2687 -33.7598
RightForeArm  175.698 43.0868 -161.736
RightHand  -4.05081 7.3399 -35.5779
LeftUpLeg  4.64215 22.8839 8.68189
LeftLeg  15.8225 33.4256 12.666
LeftFoot  7.13535 3.98249 -21.9402
LeftToes  7.37594e-011 2.64622e-011 -6.25182e-011
552
root  -7.45416 39.6757 0.0645781 14.3991 -59.3326 -7.74969
RightUpLeg  -10.5917 5.80612 11.1388
RightLeg  7.25745 31.4531 5.38927
RightFoot  -3.78775 0.0387174 -0.421031
RightToes  1.74624e-010 -3.18055e-015 -2.98177e-016
Spine  -11.0983 -6.07687 -5.15879
Spine1  -10.7261 -6.29828 16.0163
HEad  46.9281 11.6396 1.87759
LeftShoulder1  -3.88251e-019 9.70628e-020 -3.87848e-018
LeftArm  -16.0541 61.675 42.5223
LeftForeArm  147.785 -37.3464 173.161
LeftHand  -4.54675 -9.65489 35.1732
RightShoulder  1.14804 1.00011 12.1681
RightArm  -24.8703 -61.2397 -33.6422
RightForeArm  176.304 43.1874 -161.633
RightHand  -4.10984 7.40401 -35.8957
LeftUpLeg  4.63656 22.0623 8.51266
LeftLeg  15.6897 34.2108 12.4886
LeftFoot  7.22634 3.96568 -21.7508
LeftToes  7.37594e-011 2.64622e-011 -6.25182e-011
553
root  -7.47873 39.6801 0.0499371 14.3784 -59.1954 -7.63716
RightUpLeg  -10.646 5.88764 11.1446
RightLeg  7.20111 31.2618 5.31263
RightFoot  -3.78482 0.0467932 -0.505943
RightToes  1.74624e-010 -3.18055e-015 -2.98177e-016
Spine  -11.1994 -6.068 -4.98226
Spine1  -10.6568 -6.27952 15.4871
HEad  46.89 11.8629 2.16518
LeftShoulder1  -3.88251e-019 9.70628e-020 -3.87848e-018
LeftArm  -16.5204 61.7578 42.3112
LeftForeArm  147.801 -37.1106 173.226
LeftHand  -4.45808 -9.58147 34.6926
RightShoulder  1.17455 1.02876 12.3996
RightArm  -25.3239 -61.1284 -33.7048
RightForeArm  175.845 43.2854 -161.58
RightHand  -4.12617 7.58507 -35.5636
LeftUpLeg  4.58998 21.6126 8.47257
LeftLeg  15.611 34.5818 12.3391
LeftFoot  7.30494 3.96235 -21.6474
LeftToes  7.37594e-011 2.64622e-011 -6.25182e-011
